<?xml version="1.0" encoding="UTF-8" standalone="no"?>
<!-- Created with Inkscape (http://www.inkscape.org/) -->

<svg
   width="16"
   height="16"
   viewBox="0 0 4.2333332 4.2333333"
   version="1.1"
   id="svg3580"
   xml:space="preserve"
   inkscape:export-filename="open-map.png"
   inkscape:export-xdpi="96"
   inkscape:export-ydpi="96"
   inkscape:version="1.2.1 (9c6d41e410, 2022-07-14, custom)"
   sodipodi:docname="open-block.svg"
   xmlns:inkscape="http://www.inkscape.org/namespaces/inkscape"
   xmlns:sodipodi="http://sodipodi.sourceforge.net/DTD/sodipodi-0.dtd"
   xmlns:xlink="http://www.w3.org/1999/xlink"
   xmlns="http://www.w3.org/2000/svg"
   xmlns:svg="http://www.w3.org/2000/svg"><sodipodi:namedview
     id="namedview3582"
     pagecolor="#ffffff"
     bordercolor="#666666"
     borderopacity="1.0"
     inkscape:showpageshadow="2"
     inkscape:pageopacity="0.0"
     inkscape:pagecheckerboard="0"
     inkscape:deskcolor="#d1d1d1"
     inkscape:document-units="px"
     showgrid="true"
     showguides="false"
     inkscape:zoom="31.365384"
     inkscape:cx="6.0416923"
     inkscape:cy="6.3605151"
     inkscape:window-width="1409"
     inkscape:window-height="913"
     inkscape:window-x="325"
     inkscape:window-y="10"
     inkscape:window-maximized="0"
     inkscape:current-layer="layer1"><inkscape:grid
       type="xygrid"
       id="grid4076" /></sodipodi:namedview><defs
     id="defs3577"><linearGradient
       inkscape:collect="always"
       id="linearGradient2222"><stop
         style="stop-color:#0099ff;stop-opacity:1;"
         offset="0"
         id="stop2218" /><stop
         style="stop-color:#c1e8ff;stop-opacity:1;"
         offset="1"
         id="stop2220" /></linearGradient><linearGradient
       inkscape:collect="always"
       id="linearGradient8623"><stop
         style="stop-color:#8ce75a;stop-opacity:1;"
         offset="0"
         id="stop8619" /><stop
         style="stop-color:#087300;stop-opacity:1;"
         offset="1"
         id="stop8621" /></linearGradient><linearGradient
       inkscape:collect="always"
       xlink:href="#linearGradient8623"
       id="linearGradient8625"
       x1="3.2470129"
       y1="1.8703979"
       x2="2.9025593"
       y2="0.65031445"
       gradientUnits="userSpaceOnUse"
       gradientTransform="translate(-0.02067958,-0.04327953)" /><linearGradient
       inkscape:collect="always"
       xlink:href="#linearGradient2222"
       id="linearGradient2224"
       x1="1.8258206"
       y1="2.6583674"
       x2="1.8258206"
       y2="1.2392582"
       gradientUnits="userSpaceOnUse" /></defs><g
     inkscape:label="Layer 1"
     inkscape:groupmode="layer"
     id="layer1"><path
       id="rect923"
       style="opacity:1;fill:url(#linearGradient2224);stroke:#003399;stroke-width:0.264583;stroke-linecap:round;stroke-linejoin:round;stroke-dasharray:none;stroke-opacity:1;paint-order:fill markers stroke;fill-opacity:1"
       d="m 2.180601,0.64233804 c -0.2987472,0 -0.539502,0.24075476 -0.539502,0.53950196 v 0.0093 H 1.0540548 c -0.11623815,0 -0.20980635,0.093568 -0.20980635,0.2098064 V 1.732194 c -0.29224387,0.00735 -0.5255493,0.2454227 -0.5255493,0.5395019 0,0.2940792 0.23330543,0.5316306 0.5255493,0.5389852 v 0.4268473 c 0,0.1162382 0.0935682,0.2098063 0.20980635,0.2098063 H 1.6436829 C 1.668776,3.1722251 1.8987331,2.9579589 2.180601,2.9579589 c 0.2818742,0 0.5118334,0.2142573 0.5369181,0.4893758 h 0.5896281 c 0.1162381,0 0.2098063,-0.093568 0.2098063,-0.2098063 V 2.8106811 h -0.074931 c -0.2987478,0 -0.5389852,-0.2402374 -0.5389852,-0.5389852 0,-0.2987477 0.2402374,-0.5395019 0.5389852,-0.5395019 h 0.074931 V 1.4009481 c 0,-0.1162382 -0.093568,-0.2098064 -0.2098063,-0.2098064 h -0.587561 v -0.0093 c 0,-0.2987472 -0.2402381,-0.53950196 -0.5389852,-0.53950196 z" /><path
       style="fill:url(#linearGradient8625);fill-opacity:1;stroke:#087300;stroke-width:0.26458333;stroke-linecap:butt;stroke-linejoin:round;stroke-dasharray:none;stroke-opacity:1"
       d="m 1.949743,0.34683417 c 0,0 0.6018309,-0.009182 0.7709672,0.30552059 C 2.8898461,0.96705717 2.9176089,1.4607894 2.9176089,1.4607894 H 2.4003748 L 3.2744328,2.3348476 4.1186809,1.4905995 H 3.5579651 c 0,0 0.015079,-0.49937243 -0.247863,-0.80384422 C 3.0471608,0.38228347 2.9296651,0.32382455 2.567113,0.29174448 2.2045609,0.25966438 1.949743,0.34683418 1.949743,0.34683417 Z"
       id="path8203" /></g></svg>
